<?xml version="1.0" encoding="UTF-8"?>
<svg version="1.1" xmlns="http://www.w3.org/2000/svg" width="1024" height="1024">
<path d="M0 0 C337.92 0 675.84 0 1024 0 C1024 337.92 1024 675.84 1024 1024 C686.08 1024 348.16 1024 0 1024 C0 686.08 0 348.16 0 0 Z " fill="#FCFCFC" transform="translate(0,0)"/>
<path d="M0 0 C181.5 0 363 0 550 0 C550.226875 73.095 550.45375 146.19 550.6875 221.5 C550.83771606 256.16063477 550.83771606 256.16063477 550.9909668 291.52148438 C551.04064941 319.66894531 551.04064941 319.66894531 551.04988098 332.8326416 C551.06015787 342.05593544 551.10058562 351.27850013 551.16133118 360.50158691 C551.23125034 371.13319417 551.26321943 381.76409976 551.24789445 392.39593878 C551.24125447 397.83733507 551.25192853 403.27716234 551.31136644 408.71827221 C551.3647757 413.63730216 551.36764807 418.55364971 551.32991219 423.47280121 C551.32524028 425.2523645 551.33925898 427.03209389 551.37370837 428.81132984 C551.61652152 442.13330631 551.61652152 442.13330631 547.60863078 446.76145649 C544.82353009 448.81039986 542.06675312 450.41545469 539 452 C537.59421175 453.01222627 536.20464778 454.0482379 534.84765625 455.125 C512.63557998 472 512.63557998 472 509 472 C509 472.66 509 473.32 509 474 C507.67749023 475.15405273 507.67749023 475.15405273 505.80859375 476.43359375 C505.11910645 476.9116748 504.42961914 477.38975586 503.71923828 477.88232422 C502.96626465 478.39553223 502.21329102 478.90874023 501.4375 479.4375 C499.8598865 480.5314128 498.28307746 481.6264866 496.70703125 482.72265625 C495.91119629 483.27453613 495.11536133 483.82641602 494.29541016 484.39501953 C491.03624991 486.67386653 487.82557528 489.01485565 484.625 491.375 C484.02550537 491.81642334 483.42601074 492.25784668 482.80834961 492.71264648 C481.54917965 493.640812 480.29048409 494.56962137 479.03222656 495.49902344 C476.8117655 497.1390276 474.58961535 498.77672466 472.3671875 500.4140625 C469.92788757 502.21122109 467.48860257 504.0083996 465.04956055 505.8059082 C453.96803812 513.97259347 442.86750798 522.10891846 431.69995117 530.15771484 C426.8658852 533.64429334 422.05061918 537.15504019 417.25 540.6875 C410.21603182 545.86163295 403.11590762 550.93941521 396 556 C395.37609375 556.46180664 394.7521875 556.92361328 394.109375 557.39941406 C389.21075632 561 389.21075632 561 387 561 C387 561.66 387 562.32 387 563 C385.09175282 564.46228162 383.18949087 565.80207147 381.1875 567.125 C379.98366037 567.93904834 378.78054623 568.7541705 377.578125 569.5703125 C376.97291016 569.97926758 376.36769531 570.38822266 375.74414062 570.80957031 C369.47730697 575.08687727 363.42465212 579.67366452 357.375 584.25 C351.92984234 588.34963608 346.37696433 592.27771918 340.79516602 596.18847656 C334.25980951 600.78250124 327.82899094 605.5121176 321.41967773 610.2800293 C309.67160675 619 309.67160675 619 307 619 C307 619.66 307 620.32 307 621 C305.4453125 622.26953125 305.4453125 622.26953125 303.125 623.8125 C297.09903031 627.90185963 291.21591293 632.17379728 285.33447266 636.46801758 C281.64078741 639.15030813 277.97748216 641.74529953 274 644 C274 643.34 274 642.68 274 642 C273.43796875 641.731875 272.8759375 641.46375 272.296875 641.1875 C269.84449354 639.9196021 267.56072317 638.51027658 265.25 637 C264.45078125 636.484375 263.6515625 635.96875 262.828125 635.4375 C261.92320312 634.7259375 261.92320312 634.7259375 261 634 C261 633.34 261 632.68 261 632 C260.278125 631.731875 259.55625 631.46375 258.8125 631.1875 C256.00233617 630.00098638 253.51583443 628.72514361 251 627 C251 626.34 251 625.68 251 625 C249.99259766 624.67128906 249.99259766 624.67128906 248.96484375 624.3359375 C245.08507138 622.58773967 241.94269172 620.18626192 238.5625 617.625 C237.27307146 616.65760527 235.98271843 615.69144145 234.69140625 614.7265625 C234.07410645 614.26282227 233.45680664 613.79908203 232.82080078 613.32128906 C231.09329349 612.0676997 229.32994857 610.91521067 227.52734375 609.7734375 C226.27630859 608.89558594 226.27630859 608.89558594 225 608 C225 607.34 225 606.68 225 606 C224.4740625 605.93683594 223.948125 605.87367188 223.40625 605.80859375 C219.90809184 604.63307632 217.33294021 602.3526206 214.5 600.0625 C209.56467286 596.04280862 209.56467286 596.04280862 204 593 C204 592.34 204 591.68 204 591 C203.29875 590.7525 202.5975 590.505 201.875 590.25 C198.60485452 588.82819762 195.858878 587.12753712 193 585 C193 584.34 193 583.68 193 583 C192.34128906 582.78472656 191.68257812 582.56945312 191.00390625 582.34765625 C186.94285014 580.525726 183.53907747 578.03330391 179.9375 575.4375 C179.18380127 574.9002832 178.43010254 574.36306641 177.65356445 573.80957031 C172.32387193 569.99592207 167.08507321 566.075614 161.87109375 562.10546875 C157.76515455 559.09444667 153.50242585 556.35730871 149.203125 553.62890625 C148.47609375 553.09136719 147.7490625 552.55382812 147 552 C147 551.34 147 550.68 147 550 C146.28714844 549.7525 145.57429687 549.505 144.83984375 549.25 C141.66697536 547.85341419 139.29958283 546.12588958 136.5625 544 C135.49851196 543.18343945 134.43336103 542.36839242 133.3671875 541.5546875 C132.81514648 541.1328418 132.26310547 540.71099609 131.69433594 540.27636719 C128.8983962 538.1701463 126.04375631 536.14826547 123.1875 534.125 C117.34222297 529.97867349 111.55554719 525.75751659 105.79760742 521.49072266 C102.5255201 519.04493053 102.5255201 519.04493053 99 517 C99 516.34 99 515.68 99 515 C98.33355469 514.78472656 97.66710937 514.56945312 96.98046875 514.34765625 C93.00818574 512.55153877 89.77586921 510.06106096 86.3125 507.4375 C84.97619414 506.43495214 83.63899559 505.43359272 82.30078125 504.43359375 C81.42160034 503.76928345 81.42160034 503.76928345 80.5246582 503.09155273 C78.97650186 501.92281806 78.97650186 501.92281806 77 501 C77 500.34 77 499.68 77 499 C76.34773438 498.79246094 75.69546875 498.58492187 75.0234375 498.37109375 C70.81696198 496.46350602 67.32900742 493.80055267 63.625 491.0625 C62.83206543 490.48274414 62.03913086 489.90298828 61.22216797 489.30566406 C59.59431102 488.11448568 57.96816955 486.9209594 56.34375 485.72509766 C54.20181393 484.14854346 52.05529831 482.57855688 49.90625 481.01171875 C44.29196367 476.91351152 38.71097924 472.78277152 33.1875 468.5625 C27.25312328 464.06898018 21.05433715 460.00245544 14.78979492 455.98461914 C13.66408081 455.25166626 13.66408081 455.25166626 12.515625 454.50390625 C11.83790039 454.06892822 11.16017578 453.6339502 10.46191406 453.18579102 C9.7382666 452.59882446 9.7382666 452.59882446 9 452 C9 451.34 9 450.68 9 450 C7.88625 449.5978125 7.88625 449.5978125 6.75 449.1875 C3.94061572 447.97435679 2.14943083 447.17755653 0 445 C-0.397315 442.42002167 -0.53060968 440.26261818 -0.49219131 437.68112659 C-0.49911378 436.54853173 -0.49911378 436.54853173 -0.5061761 435.39305617 C-0.51682766 432.84346091 -0.49877182 430.29486001 -0.48101807 427.74531555 C-0.48276676 425.91163901 -0.48627257 424.07796344 -0.49139404 422.24429321 C-0.50040051 417.17934673 -0.48426577 412.11473605 -0.46429092 407.04983224 C-0.44688153 401.51398474 -0.45266556 395.97815386 -0.45556259 390.44228649 C-0.45769332 379.68572474 -0.43918444 368.92929604 -0.41355728 358.17276851 C-0.38481203 345.73638153 -0.3815813 333.30007502 -0.37841797 320.86364746 C-0.35739726 288.01324381 -0.30155307 255.16286992 -0.25 222.3125 C-0.1675 148.949375 -0.085 75.58625 0 0 Z " fill="#FCFCFC" transform="translate(237,194)"/>
<path d="M0 0 C181.5 0 363 0 550 0 C550.226875 73.095 550.45375 146.19 550.6875 221.5 C550.83771606 256.16063477 550.83771606 256.16063477 550.9909668 291.52148438 C551.04064941 319.66894531 551.04064941 319.66894531 551.04988098 332.8326416 C551.06015787 342.05593544 551.10058562 351.27850013 551.16133118 360.50158691 C551.23125034 371.13319417 551.26321943 381.76409976 551.24789445 392.39593878 C551.24125447 397.83733507 551.25192853 403.27716234 551.31136644 408.71827221 C551.3647757 413.63730216 551.36764807 418.55364971 551.32991219 423.47280121 C551.32524028 425.2523645 551.33925898 427.03209389 551.37370837 428.81132984 C551.61652152 442.13330631 551.61652152 442.13330631 547.60863078 446.76145649 C544.82353009 448.81039986 542.06675312 450.41545469 539 452 C537.59421175 453.01222627 536.20464778 454.0482379 534.84765625 455.125 C512.63557998 472 512.63557998 472 509 472 C509 472.66 509 473.32 509 474 C507.67749023 475.15405273 507.67749023 475.15405273 505.80859375 476.43359375 C505.11910645 476.9116748 504.42961914 477.38975586 503.71923828 477.88232422 C502.96626465 478.39553223 502.21329102 478.90874023 501.4375 479.4375 C499.8598865 480.5314128 498.28307746 481.6264866 496.70703125 482.72265625 C495.91119629 483.27453613 495.11536133 483.82641602 494.29541016 484.39501953 C491.03624991 486.67386653 487.82557528 489.01485565 484.625 491.375 C484.02550537 491.81642334 483.42601074 492.25784668 482.80834961 492.71264648 C481.54917965 493.640812 480.29048409 494.56962137 479.03222656 495.49902344 C476.8117655 497.1390276 474.58961535 498.77672466 472.3671875 500.4140625 C469.92788757 502.21122109 467.48860257 504.0083996 465.04956055 505.8059082 C453.96803812 513.97259347 442.86750798 522.10891846 431.69995117 530.15771484 C426.8658852 533.64429334 422.05061918 537.15504019 417.25 540.6875 C410.21603182 545.86163295 403.11590762 550.93941521 396 556 C395.37609375 556.46180664 394.7521875 556.92361328 394.109375 557.39941406 C389.21075632 561 389.21075632 561 387 561 C387 561.66 387 562.32 387 563 C385.09175282 564.46228162 383.18949087 565.80207147 381.1875 567.125 C379.98366037 567.93904834 378.78054623 568.7541705 377.578125 569.5703125 C376.97291016 569.97926758 376.36769531 570.38822266 375.74414062 570.80957031 C369.47730697 575.08687727 363.42465212 579.67366452 357.375 584.25 C351.92984234 588.34963608 346.37696433 592.27771918 340.79516602 596.18847656 C334.25980951 600.78250124 327.82899094 605.5121176 321.41967773 610.2800293 C309.67160675 619 309.67160675 619 307 619 C307 619.66 307 620.32 307 621 C305.4453125 622.26953125 305.4453125 622.26953125 303.125 623.8125 C297.09903031 627.90185963 291.21591293 632.17379728 285.33447266 636.46801758 C281.64078741 639.15030813 277.97748216 641.74529953 274 644 C274 643.34 274 642.68 274 642 C273.43796875 641.731875 272.8759375 641.46375 272.296875 641.1875 C269.84449354 639.9196021 267.56072317 638.51027658 265.25 637 C264.45078125 636.484375 263.6515625 635.96875 262.828125 635.4375 C261.92320312 634.7259375 261.92320312 634.7259375 261 634 C261 633.34 261 632.68 261 632 C260.278125 631.731875 259.55625 631.46375 258.8125 631.1875 C256.00233617 630.00098638 253.51583443 628.72514361 251 627 C251 626.34 251 625.68 251 625 C249.99259766 624.67128906 249.99259766 624.67128906 248.96484375 624.3359375 C245.08507138 622.58773967 241.94269172 620.18626192 238.5625 617.625 C237.27307146 616.65760527 235.98271843 615.69144145 234.69140625 614.7265625 C234.07410645 614.26282227 233.45680664 613.79908203 232.82080078 613.32128906 C231.09329349 612.0676997 229.32994857 610.91521067 227.52734375 609.7734375 C226.27630859 608.89558594 226.27630859 608.89558594 225 608 C225 607.34 225 606.68 225 606 C224.4740625 605.93683594 223.948125 605.87367188 223.40625 605.80859375 C219.90809184 604.63307632 217.33294021 602.3526206 214.5 600.0625 C209.56467286 596.04280862 209.56467286 596.04280862 204 593 C204 592.34 204 591.68 204 591 C203.29875 590.7525 202.5975 590.505 201.875 590.25 C198.60485452 588.82819762 195.858878 587.12753712 193 585 C193 584.34 193 583.68 193 583 C192.34128906 582.78472656 191.68257812 582.56945312 191.00390625 582.34765625 C186.94285014 580.525726 183.53907747 578.03330391 179.9375 575.4375 C179.18380127 574.9002832 178.43010254 574.36306641 177.65356445 573.80957031 C172.32387193 569.99592207 167.08507321 566.075614 161.87109375 562.10546875 C157.76515455 559.09444667 153.50242585 556.35730871 149.203125 553.62890625 C148.47609375 553.09136719 147.7490625 552.55382812 147 552 C147 551.34 147 550.68 147 550 C146.28714844 549.7525 145.57429687 549.505 144.83984375 549.25 C141.66697536 547.85341419 139.29958283 546.12588958 136.5625 544 C135.49851196 543.18343945 134.43336103 542.36839242 133.3671875 541.5546875 C132.81514648 541.1328418 132.26310547 540.71099609 131.69433594 540.27636719 C128.8983962 538.1701463 126.04375631 536.14826547 123.1875 534.125 C117.34222297 529.97867349 111.55554719 525.75751659 105.79760742 521.49072266 C102.5255201 519.04493053 102.5255201 519.04493053 99 517 C99 516.34 99 515.68 99 515 C98.33355469 514.78472656 97.66710937 514.56945312 96.98046875 514.34765625 C93.00818574 512.55153877 89.77586921 510.06106096 86.3125 507.4375 C84.97619414 506.43495214 83.63899559 505.43359272 82.30078125 504.43359375 C81.42160034 503.76928345 81.42160034 503.76928345 80.5246582 503.09155273 C78.97650186 501.92281806 78.97650186 501.92281806 77 501 C77 500.34 77 499.68 77 499 C76.34773438 498.79246094 75.69546875 498.58492187 75.0234375 498.37109375 C70.81696198 496.46350602 67.32900742 493.80055267 63.625 491.0625 C62.83206543 490.48274414 62.03913086 489.90298828 61.22216797 489.30566406 C59.59431102 488.11448568 57.96816955 486.9209594 56.34375 485.72509766 C54.20181393 484.14854346 52.05529831 482.57855688 49.90625 481.01171875 C44.29196367 476.91351152 38.71097924 472.78277152 33.1875 468.5625 C27.25312328 464.06898018 21.05433715 460.00245544 14.78979492 455.98461914 C13.66408081 455.25166626 13.66408081 455.25166626 12.515625 454.50390625 C11.83790039 454.06892822 11.16017578 453.6339502 10.46191406 453.18579102 C9.7382666 452.59882446 9.7382666 452.59882446 9 452 C9 451.34 9 450.68 9 450 C7.88625 449.5978125 7.88625 449.5978125 6.75 449.1875 C3.94061572 447.97435679 2.14943083 447.17755653 0 445 C-0.397315 442.42002167 -0.53060968 440.26261818 -0.49219131 437.68112659 C-0.49911378 436.54853173 -0.49911378 436.54853173 -0.5061761 435.39305617 C-0.51682766 432.84346091 -0.49877182 430.29486001 -0.48101807 427.74531555 C-0.48276676 425.91163901 -0.48627257 424.07796344 -0.49139404 422.24429321 C-0.50040051 417.17934673 -0.48426577 412.11473605 -0.46429092 407.04983224 C-0.44688153 401.51398474 -0.45266556 395.97815386 -0.45556259 390.44228649 C-0.45769332 379.68572474 -0.43918444 368.92929604 -0.41355728 358.17276851 C-0.38481203 345.73638153 -0.3815813 333.30007502 -0.37841797 320.86364746 C-0.35739726 288.01324381 -0.30155307 255.16286992 -0.25 222.3125 C-0.1675 148.949375 -0.085 75.58625 0 0 Z M50 50 C49.814375 111.25625 49.62875 172.5125 49.4375 235.625 C49.35556396 254.9913916 49.27362793 274.3577832 49.18920898 294.31103516 C49.1591155 311.61893505 49.1591155 311.61893505 49.14100647 328.92684937 C49.13259626 336.65683481 49.09951114 344.38623822 49.04981995 352.11605835 C48.99263024 361.02545832 48.96645287 369.93429797 48.97899545 378.843883 C48.98443025 383.40421797 48.97566864 387.96329982 48.92706382 392.52340627 C48.88339765 396.64511769 48.88099447 400.76468558 48.91189003 404.88649368 C48.91571565 406.37840962 48.90421892 407.87045774 48.87605679 409.36211276 C48.48227797 417.38126528 48.48227797 417.38126528 51.98276722 424.17755389 C54.26683745 425.71918263 56.48725436 426.88217274 59 428 C60.65608448 429.17316146 62.30355839 430.35869003 63.9375 431.5625 C69.75353107 435.8259465 75.60091393 440.04483616 81.45483398 444.25610352 C82.55033569 445.04585571 82.55033569 445.04585571 83.66796875 445.8515625 C84.38388184 446.36750977 85.09979492 446.88345703 85.83740234 447.41503906 C88.72041042 449.5279865 91.54685553 451.7124305 94.36450195 453.91162109 C95.95007941 455.18467057 95.95007941 455.18467057 98 455 C98 455.66 98 456.32 98 457 C99.94614527 458.59348861 99.94614527 458.59348861 102.375 460.125 C103.59316406 460.93324219 103.59316406 460.93324219 104.8359375 461.7578125 C106.87322026 463.1659413 106.87322026 463.1659413 109 463 C109 463.66 109 464.32 109 465 C110.94614527 466.59348861 110.94614527 466.59348861 113.375 468.125 C114.59316406 468.93324219 114.59316406 468.93324219 115.8359375 469.7578125 C117.87322026 471.1659413 117.87322026 471.1659413 120 471 C120 471.66 120 472.32 120 473 C120.99 473 121.98 473 123 473 C123 473.66 123 474.32 123 475 C124.78233868 476.36116961 126.63051283 477.63623787 128.5 478.875 C133.76326229 482.41725674 138.88142582 486.10554091 143.9375 489.9375 C154.3200734 497.78039745 164.83081625 505.3546081 175.76953125 512.40625 C178 514 178 514 179 516 C179.99 516 180.98 516 182 516 C182 516.66 182 517.32 182 518 C182.99 518 183.98 518 185 518 C185 518.66 185 519.32 185 520 C187.00889867 521.58757949 189.01791897 523.05252453 191.125 524.5 C192.40637236 525.39696065 193.68761862 526.29410145 194.96875 527.19140625 C195.63261719 527.65305176 196.29648437 528.11469727 196.98046875 528.59033203 C200.21361375 530.84712353 203.41860851 533.14293947 206.625 535.4375 C207.2039502 535.85 207.78290039 536.2625 208.37939453 536.6875 C210.71025057 538.34975214 213.02143661 540.01683253 215.2734375 541.78515625 C216.92075815 543.19181586 216.92075815 543.19181586 219 543 C219 543.66 219 544.32 219 545 C220.48139353 546.32084976 220.48139353 546.32084976 222.4296875 547.6015625 C223.14253906 548.09140625 223.85539063 548.58125 224.58984375 549.0859375 C225.34394531 549.59382813 226.09804688 550.10171875 226.875 550.625 C227.99455078 551.3984375 227.99455078 551.3984375 229.13671875 552.1875 C232.7614698 554.97756112 232.7614698 554.97756112 237 556 C237 556.66 237 557.32 237 558 C238.77127426 559.4796263 238.77127426 559.4796263 241.125 561 C244.79844642 563.49732182 248.44679089 566.01673367 252.05249023 568.61035156 C253.82690978 569.88535409 255.60846319 571.14991185 257.390625 572.4140625 C259.82442689 574.14514694 262.22415943 575.91359062 264.609375 577.7109375 C265.76028881 578.55746552 266.91132565 579.40382632 268.0625 580.25 C269.08472656 581.01828125 270.10695313 581.7865625 271.16015625 582.578125 C273.84581686 584.28092638 273.84581686 584.28092638 276.4140625 583.546875 C279.82668784 581.50548582 283.08732609 579.32504813 286.3125 577 C287.28026367 576.32324219 287.28026367 576.32324219 288.26757812 575.6328125 C289.88501255 574.47579063 291.44793244 573.24333423 293 572 C293 571.34 293 570.68 293 570 C293.7415332 569.72849121 294.48306641 569.45698242 295.24707031 569.17724609 C297.85635557 568.06142723 299.79265406 566.86653184 302.046875 565.1640625 C302.8006543 564.60050049 303.55443359 564.03693848 304.33105469 563.45629883 C305.12930664 562.85197021 305.92755859 562.2476416 306.75 561.625 C308.45726231 560.34882635 310.16561733 559.07411336 311.875 557.80078125 C312.73351562 557.16092285 313.59203125 556.52106445 314.4765625 555.86181641 C318.19329792 553.11957334 321.96599724 550.46077552 325.75 547.8125 C334.24929535 541.8515848 342.61557314 535.72002901 350.96289062 529.54882812 C352.93240698 528.09343478 354.90332848 526.6399721 356.875 525.1875 C357.49850342 524.72730469 358.12200684 524.26710938 358.7644043 523.79296875 C362.92850252 520.73658637 367.16790766 517.84606836 371.55859375 515.12109375 C372.03425781 514.75113281 372.50992187 514.38117188 373 514 C373 513.34 373 512.68 373 512 C373.72574219 511.731875 374.45148438 511.46375 375.19921875 511.1875 C377.96864024 510.01329619 380.30919434 508.6605676 382.8125 507 C383.60269531 506.484375 384.39289063 505.96875 385.20703125 505.4375 C385.79871094 504.963125 386.39039063 504.48875 387 504 C387 503.34 387 502.68 387 502 C388.11375 501.5978125 388.11375 501.5978125 389.25 501.1875 C391.89061949 500.04723249 393.85552844 498.90619694 396 497 C396 496.34 396 495.68 396 495 C396.65097656 494.79375 397.30195312 494.5875 397.97265625 494.375 C402.20501331 492.45269073 405.71211251 489.75858325 409.4375 487 C411.05055125 485.81999802 412.66383508 484.64031392 414.27734375 483.4609375 C415.0751123 482.87538086 415.87288086 482.28982422 416.69482422 481.68652344 C419.94576791 479.30805288 423.22008112 476.9632692 426.5 474.625 C427.06146729 474.2228125 427.62293457 473.820625 428.20141602 473.40625 C432.51833348 470.32009151 436.89380474 467.32504378 441.3046875 464.375 C441.86414063 463.92125 442.42359375 463.4675 443 463 C443 462.34 443 461.68 443 461 C444.00160156 460.68095703 444.00160156 460.68095703 445.0234375 460.35546875 C449.00937702 458.54034931 452.18251356 455.99426572 455.625 453.3125 C461.30179008 448.9530699 466.9903271 444.94983604 473.15625 441.3046875 C473.7646875 440.87414062 474.373125 440.44359375 475 440 C475 439.34 475 438.68 475 438 C476.0828125 437.5978125 476.0828125 437.5978125 477.1875 437.1875 C480.88548266 435.62612954 484.01467078 434.03825103 486.79813594 431.1052866 C489.23417368 428.77609757 491.75999974 427.38275288 494.66732502 425.69041443 C498.06598384 423.22657093 499.72369547 421.8643193 501.01197565 417.83439827 C501.38848371 413.85180121 501.41555004 409.94502986 501.32279968 405.95336914 C501.32761602 404.41984399 501.33727082 402.88632773 501.35133362 401.3528595 C501.37596252 397.14153906 501.33193693 392.93330543 501.27680002 388.72237706 C501.2287165 384.11111059 501.24484381 379.49998317 501.25279713 374.88853455 C501.25864244 365.9394902 501.20788472 356.99166126 501.13728251 348.04292911 C501.05805307 337.69060912 501.04933909 327.33901817 501.04064941 316.98632812 C500.98290536 289.65735956 500.82933281 262.32866152 500.6875 235 C500.460625 173.95 500.23375 112.9 500 50 C351.5 50 203 50 50 50 Z " fill="#8F4D21" transform="translate(237,194)"/>
<path d="M0 0 C19.47 0 38.94 0 59 0 C59 44.22 59 88.44 59 134 C103.22 134 147.44 134 193 134 C193 89.78 193 45.56 193 0 C212.47 0 231.94 0 252 0 C252.08812446 40.33286852 252.16200305 80.66564651 252.20426132 120.99858369 C252.20926435 125.75646156 252.21444162 130.51433923 252.21972656 135.2722168 C252.2207758 136.21945475 252.22182505 137.1666927 252.22290608 138.14263483 C252.24032797 153.49540692 252.27187544 168.84811931 252.30861118 184.20085595 C252.34597105 199.94532948 252.36822534 215.68977168 252.37635398 231.43428773 C252.38185206 241.15543381 252.39923887 250.87641118 252.43166587 260.59750535 C252.45275266 267.25679569 252.45921334 273.91599836 252.45400551 280.57531969 C252.45143458 284.42178832 252.45547188 288.26796143 252.4768219 292.11437798 C252.49976483 296.27801112 252.49198928 300.44100902 252.48101807 304.60469055 C252.49266943 305.82938264 252.5043208 307.05407472 252.51632524 308.31587869 C252.50836104 309.42608823 252.50039685 310.53629778 252.49219131 311.68015003 C252.49446964 313.12289743 252.49446964 313.12289743 252.49679399 314.59479123 C252 317 252 317 250.09423804 318.83249062 C248 320 248 320 246 320 C246 320.66 246 321.32 246 322 C243.48738092 323.71287809 240.97827346 325.31121226 238.375 326.875 C236.94480584 327.74656498 235.51511078 328.61894952 234.0859375 329.4921875 C233.39338867 329.91209961 232.70083984 330.33201172 231.98730469 330.76464844 C230.15506132 331.90361053 228.37695067 333.09534862 226.6015625 334.3203125 C224 336 224 336 222 336 C222 336.66 222 337.32 222 338 C220.19140625 339.3046875 220.19140625 339.3046875 217.5625 340.875 C211.37428527 344.68499887 205.47883764 348.85069864 199.57641602 353.08740234 C198.86799561 353.59352051 198.1595752 354.09963867 197.4296875 354.62109375 C196.47425049 355.30836548 196.47425049 355.30836548 195.49951172 356.00952148 C194 357 194 357 193 357 C193 300.57 193 244.14 193 186 C148.78 186 104.56 186 59 186 C59 242.43 59 298.86 59 357 C56.69 355.68 54.38 354.36 52 353 C51.030625 352.46375 50.06125 351.9275 49.0625 351.375 C48.0415625 350.694375 48.0415625 350.694375 47 350 C47 349.34 47 348.68 47 348 C45.92298828 347.61521484 45.92298828 347.61521484 44.82421875 347.22265625 C41.82859999 345.92579778 39.45241018 344.35053627 36.8125 342.4375 C33.52121677 340.02799361 33.52121677 340.02799361 30 338 C30 337.34 30 336.68 30 336 C28.02 335.34 26.04 334.68 24 334 C24 333.34 24 332.68 24 332 C22.948125 331.62875 22.948125 331.62875 21.875 331.25 C18.60485452 329.82819762 15.858878 328.12753712 13 326 C13 325.34 13 324.68 13 324 C11.35 323.67 9.7 323.34 8 323 C8 322.34 8 321.68 8 321 C7.236875 320.71125 6.47375 320.4225 5.6875 320.125 C3 319 3 319 0 317 C-0.37259549 314.71898973 -0.37259549 314.71898973 -0.36914349 311.80319786 C-0.37511663 310.69497937 -0.38108978 309.58676087 -0.38724393 308.44496 C-0.3785054 307.21735507 -0.36976688 305.98975014 -0.36076355 304.72494507 C-0.36332682 303.42875012 -0.3658901 302.13255517 -0.36853105 300.79708159 C-0.37526502 297.18720176 -0.36320372 293.57758704 -0.34819686 289.96774101 C-0.33528245 286.07953248 -0.33962269 282.19133978 -0.34190369 278.30311584 C-0.34347934 271.56251843 -0.3340397 264.8220079 -0.31719017 258.08143234 C-0.29284421 248.33561784 -0.28499942 238.58984549 -0.2812262 228.84400387 C-0.27465478 213.03334853 -0.25467494 197.22273954 -0.22631836 181.41210938 C-0.19879562 166.05045809 -0.17755331 150.68881939 -0.16479492 135.32714844 C-0.16400675 134.38079629 -0.16321858 133.43444414 -0.16240653 132.45941465 C-0.15849151 127.71200541 -0.15470036 122.96459608 -0.15097082 118.21718669 C-0.11985342 78.81141664 -0.06453879 39.40573227 0 0 Z " fill="#8F4D20" transform="translate(386,313)"/>
<path d="M0 0 C148.5 0 297 0 450 0 C450 122.43 450 244.86 450 371 C449.34 371.33 448.68 371.66 448 372 C448.33 249.57 448.66 127.14 449 1 C301.49 1.33 153.98 1.66 2 2 C2.0394427 100.2414579 2.0394427 100.2414579 2.09008789 198.48291016 C2.09460449 217.69018555 2.09460449 217.69018555 2.09544373 226.74472046 C2.09635758 232.93116661 2.09996338 239.11760314 2.10557556 245.30404663 C2.14243277 287.21389322 1.83994568 329.09777592 1 371 C2.67074585 371.46188721 2.67074585 371.46188721 4.37524414 371.93310547 C8.40401345 373.11891552 10.66649488 374.56084991 14 377 C13.67 377.99 13.34 378.98 13 380 C12.43657361 379.71531817 11.87314722 379.43063634 11.2926473 379.13732779 C9.7759852 378.3849478 8.23696731 377.67591271 6.67867428 377.01404989 C3.92173683 375.59964106 2.06860426 374.32288782 0 372 C-1.35239342 367.09428176 -1.17760232 362.20425823 -1.08229065 357.15591431 C-1.08622906 355.62001097 -1.09412432 354.08411353 -1.1056366 352.54824829 C-1.12582908 348.32140299 -1.08970447 344.09660852 -1.04465456 339.87002376 C-1.00537601 335.24485166 -1.01850452 330.61977528 -1.02501583 325.99448204 C-1.02980261 317.01441136 -0.98823097 308.03515004 -0.93050387 299.05528738 C-0.86573392 288.66918373 -0.85855301 278.28356703 -0.85144043 267.8972168 C-0.80417641 240.47301613 -0.67852644 213.04899595 -0.5625 185.625 C-0.376875 124.36875 -0.19125 63.1125 0 0 Z " fill="#FEF4ED" transform="translate(287,244)"/>
<path d="M0 0 C44.22 0 88.44 0 134 0 C134 56.43 134 112.86 134 171 C133.67 171 133.34 171 133 171 C133 115.56 133 60.12 133 3 C68.155 3.495 68.155 3.495 2 4 C1.67 59.11 1.34 114.22 1 171 C0.67 171 0.34 171 0 171 C0 114.57 0 58.14 0 0 Z " fill="#EACFC4" transform="translate(445,499)"/>
<path d="M0 0 C0.99 0.495 0.99 0.495 2 1 C2.17734903 17.47228238 2.34301247 33.94463442 2.49477577 50.41717052 C2.56551479 58.06569707 2.64007331 65.71415072 2.72363281 73.36254883 C2.7964558 80.02909666 2.86210296 86.69566998 2.91914403 93.36237222 C2.94959557 96.89215108 2.98363276 100.42181299 3.02626419 103.95146751 C3.07372735 107.89229754 3.1051693 111.83316701 3.13525391 115.77416992 C3.1517952 116.94373734 3.16833649 118.11330475 3.18537903 119.3183136 C3.19104385 120.39378448 3.19670868 121.46925537 3.20254517 122.57731628 C3.2117631 123.50924899 3.22098103 124.4411817 3.23047829 125.40135479 C3 128 3 128 1 133 C44.89 133 88.78 133 134 133 C134 133.33 134 133.66 134 134 C89.78 134 45.56 134 0 134 C0 89.78 0 45.56 0 0 Z " fill="#F0DDCF" transform="translate(445,313)"/>
<path d="M0 0 C0.99 0 1.98 0 3 0 C3.45375 0.474375 3.9075 0.94875 4.375 1.4375 C6.46366683 3.44583349 8.1783448 3.61869524 11 4 C11 5.32 11 6.64 11 8 C12.32 8.33 13.64 8.66 15 9 C15 9.66 15 10.32 15 11 C15.66644531 11.21527344 16.33289063 11.43054688 17.01953125 11.65234375 C20.99181426 13.44846123 24.22413079 15.93893904 27.6875 18.5625 C29.02380586 19.56504786 30.36100441 20.56640728 31.69921875 21.56640625 C32.28533936 22.00927979 32.87145996 22.45215332 33.4753418 22.90844727 C35.02349814 24.07718194 35.02349814 24.07718194 37 25 C37 25.66 37 26.32 37 27 C37.928125 27.268125 38.85625 27.53625 39.8125 27.8125 C42.85688595 28.946683 43.89711622 29.69684158 46 32 C46.99 32.33 47.98 32.66 49 33 C53.66666667 37.33333333 53.66666667 37.33333333 55 40 C50.89160936 38.54997977 47.49655387 36.6020866 44 34 C44 33.34 44 32.68 44 32 C43.33355469 31.78472656 42.66710937 31.56945312 41.98046875 31.34765625 C38.00818574 29.55153877 34.77586921 27.06106096 31.3125 24.4375 C29.97619414 23.43495214 28.63899559 22.43359272 27.30078125 21.43359375 C26.71466064 20.99072021 26.12854004 20.54784668 25.5246582 20.09155273 C23.97650186 18.92281806 23.97650186 18.92281806 22 18 C22 17.34 22 16.68 22 16 C21.35675781 15.79375 20.71351563 15.5875 20.05078125 15.375 C15.72716949 13.42632991 12.04353336 10.74091893 8.1875 8 C7.39923828 7.4534375 6.61097656 6.906875 5.79882812 6.34375 C4.68217773 5.55484375 4.68217773 5.55484375 3.54296875 4.75 C2.86258545 4.27046875 2.18220215 3.7909375 1.48120117 3.296875 C0.99240479 2.86890625 0.5036084 2.4409375 0 2 C0 1.34 0 0.68 0 0 Z " fill="#774325" transform="translate(292,677)"/>
<path d="M0 0 C0.66 0 1.32 0 2 0 C0.47282845 4.58151466 -1.59214011 7.79607006 -6 10 C-7.13350534 12.01669827 -7.13350534 12.01669827 -8 14 C-8.99 13.01 -9.98 12.02 -11 11 C-11.48210938 11.49371094 -11.96421875 11.98742187 -12.4609375 12.49609375 C-13.09257813 13.13675781 -13.72421875 13.77742187 -14.375 14.4375 C-15.31472656 15.39462891 -15.31472656 15.39462891 -16.2734375 16.37109375 C-18 18 -18 18 -20 19 C-20.33 19.66 -20.66 20.32 -21 21 C-22.32 20.34 -23.64 19.68 -25 19 C-22.48020165 17.10278804 -19.95896967 15.20748998 -17.4375 13.3125 C-16.73302734 12.78205078 -16.02855469 12.25160156 -15.30273438 11.70507812 C-13.20642808 10.1304333 -11.10465145 8.56346955 -9 7 C-8.33371582 6.50161621 -7.66743164 6.00323242 -6.98095703 5.48974609 C-2.23317901 2 -2.23317901 2 0 2 C0 1.34 0 0.68 0 0 Z " fill="#F4E7DE" transform="translate(746,666)"/>
<path d="M0 0 C1.32 0.66 2.64 1.32 4 2 C-10.59681093 12.55808656 -10.59681093 12.55808656 -18 17 C-18 15.68 -18 14.36 -18 13 C-17.34 13 -16.68 13 -16 13 C-16 12.34 -16 11.68 -16 11 C-13.09399739 9.74335022 -11.20395416 9 -8 9 C-7.9175 8.38125 -7.835 7.7625 -7.75 7.125 C-7 5 -7 5 -5.125 3.9375 C-4.42375 3.628125 -3.7225 3.31875 -3 3 C-1.29078411 1.4587688 -1.29078411 1.4587688 0 0 Z " fill="#F7EBE1" transform="translate(556,742)"/>
<path d="M0 0 C4.39081764 1.5214886 8.02875969 3.85939639 11.8125 6.5 C12.7087207 7.10521484 12.7087207 7.10521484 13.62304688 7.72265625 C15.12143611 8.76039782 16.56615614 9.87475797 18 11 C18 11.66 18 12.32 18 13 C18.70125 13.226875 19.4025 13.45375 20.125 13.6875 C23.69343613 15.31656867 26.06514511 17.40640731 29 20 C28.34 20.33 27.68 20.66 27 21 C26.5059668 20.64695801 26.01193359 20.29391602 25.50292969 19.93017578 C23.2540131 18.32554055 21.00204863 16.72523618 18.75 15.125 C17.58404297 14.29162109 17.58404297 14.29162109 16.39453125 13.44140625 C15.64042969 12.90644531 14.88632812 12.37148438 14.109375 11.8203125 C13.07248535 11.08192139 13.07248535 11.08192139 12.01464844 10.32861328 C10.06683309 9.04407485 8.08687743 8.03568904 6 7 C4.4375 5.5625 4.4375 5.5625 3 4 C2.443125 3.46375 1.88625 2.9275 1.3125 2.375 C0 1 0 1 0 0 Z " fill="#7A4428" transform="translate(456,739)"/>
<path d="M0 0 C2.6875 0.3125 2.6875 0.3125 5 1 C4.34 1.66 3.68 2.32 3 3 C4.09601169 4.00893131 5.20213918 5.00688225 6.3125 6 C6.92738281 6.556875 7.54226563 7.11375 8.17578125 7.6875 C10.03131335 9.29201498 10.03131335 9.29201498 13 9 C13.33 9.99 13.66 10.98 14 12 C13.01 12.33 12.02 12.66 11 13 C8.48164732 11.43152656 6.17081064 9.84365137 3.8125 8.0625 C3.15830078 7.58103516 2.50410156 7.09957031 1.83007812 6.60351562 C0.21323469 5.41153616 -1.39428928 4.20693447 -3 3 C-1.66796875 1.48046875 -1.66796875 1.48046875 0 0 Z " fill="#F6ECE3" transform="translate(384,681)"/>
<path d="M0 0 C0.99 0.66 1.98 1.32 3 2 C1.2758698 3.29838176 -0.45453232 4.58843747 -2.1875 5.875 C-3.63189453 6.95394531 -3.63189453 6.95394531 -5.10546875 8.0546875 C-7.71128675 9.80596599 -10.04792144 10.97459794 -13 12 C-13 11.34 -13 10.68 -13 10 C-12.01 10 -11.02 10 -10 10 C-10 9.34 -10 8.68 -10 8 C-9.34 8 -8.68 8 -8 8 C-8.50603992 5.83125748 -8.99983813 4.00032373 -10 2 C-8.63875 2.3403125 -8.63875 2.3403125 -7.25 2.6875 C-4.00496499 3.32605545 -4.00496499 3.32605545 -1.625 1.5625 C-1.08875 1.046875 -0.5525 0.53125 0 0 Z " fill="#F5EBE1" transform="translate(524,766)"/>
<path d="M0 0 C3.5865054 1.33213058 6.87682483 2.76916059 10 5 C10 5.99 10 6.98 10 8 C11.32 8.66 12.64 9.32 14 10 C13.34 10.66 12.68 11.32 12 12 C11.34 11.67 10.68 11.34 10 11 C10 10.34 10 9.68 10 9 C9.29875 8.773125 8.5975 8.54625 7.875 8.3125 C4.30656387 6.68343133 1.93485489 4.59359269 -1 2 C-0.67 1.34 -0.34 0.68 0 0 Z " fill="#F5EBE4" transform="translate(325,640)"/>
<path d="M0 0 C0.66 0.33 1.32 0.66 2 1 C1.360625 1.7425 0.72125 2.485 0.0625 3.25 C-1.78333407 5.7111121 -2.56069174 7.03466926 -3 10 C-3.5775 9.773125 -4.155 9.54625 -4.75 9.3125 C-7.12172477 8.73494807 -7.12172477 8.73494807 -9.25 10.4375 C-9.8275 10.953125 -10.405 11.46875 -11 12 C-11.66 11.34 -12.32 10.68 -13 10 C-8.71 6.7 -4.42 3.4 0 0 Z " fill="#F9F4EE" transform="translate(689,708)"/>
<path d="M0 0 C0.66 0.33 1.32 0.66 2 1 C-0.55545263 2.96766709 -3.12052247 4.92239917 -5.6875 6.875 C-6.7693457 7.70837891 -6.7693457 7.70837891 -7.87304688 8.55859375 C-11.45091251 11.27058323 -14.65523806 13.64601107 -19 15 C-18.34 14.01 -17.68 13.02 -17 12 C-16.34 12 -15.68 12 -15 12 C-14.67 10.35 -14.34 8.7 -14 7 C-13.01 7.33 -12.02 7.66 -11 8 C-8.70769496 6.60222379 -8.70769496 6.60222379 -6.4375 4.625 C-2.10126582 1.05063291 -2.10126582 1.05063291 0 0 Z " fill="#754020" transform="translate(643,740)"/>
<path d="M0 0 C0.99 0.33 1.98 0.66 3 1 C0.75801735 2.67848968 -1.49245614 4.34267614 -3.75 6 C-4.38421875 6.47695313 -5.0184375 6.95390625 -5.671875 7.4453125 C-6.6 8.12207031 -6.6 8.12207031 -7.546875 8.8125 C-8.11245117 9.23144531 -8.67802734 9.65039062 -9.26074219 10.08203125 C-11 11 -11 11 -15 11 C-9.01295896 4.84665227 -9.01295896 4.84665227 -6 3 C-4.68 3 -3.36 3 -2 3 C-2 2.34 -2 1.68 -2 1 C-1.34 0.67 -0.68 0.34 0 0 Z " fill="#F8EEE4" transform="translate(667,663)"/>
<path d="M0 0 C3.89006773 1.38780795 6.96558708 3.2152227 10.3125 5.625 C11.19550781 6.25664063 12.07851563 6.88828125 12.98828125 7.5390625 C13.65214844 8.02117188 14.31601562 8.50328125 15 9 C13 10 13 10 11.0546875 9.44140625 C9.97574219 9.00634766 9.97574219 9.00634766 8.875 8.5625 C8.15054687 8.27503906 7.42609375 7.98757813 6.6796875 7.69140625 C6.12539062 7.46324219 5.57109375 7.23507812 5 7 C5 6.34 5 5.68 5 5 C4.38125 4.71125 3.7625 4.4225 3.125 4.125 C1 3 1 3 -1 1 C-0.67 0.67 -0.34 0.34 0 0 Z " fill="#F4E9E1" transform="translate(249,648)"/>
<path d="M0 0 C2 1 2 1 3 3 C2.2575 3.061875 1.515 3.12375 0.75 3.1875 C-2.83925442 4.24796153 -3.73339095 6.09590716 -6 9 C-8.75 10.3125 -8.75 10.3125 -11 11 C-11 10.01 -11 9.02 -11 8 C-8.59375 5.95703125 -8.59375 5.95703125 -5.5 3.8125 C-3.96859375 2.73935547 -3.96859375 2.73935547 -2.40625 1.64453125 C-1.6121875 1.10183594 -0.818125 0.55914063 0 0 Z " fill="#F7EBE1" transform="translate(524,828)"/>
<path d="M0 0 C0.66 0.33 1.32 0.66 2 1 C-1.31603574 3.68885795 -4.65017859 6.3533481 -8 9 C-9.04800781 9.83144531 -9.04800781 9.83144531 -10.1171875 10.6796875 C-11.9375 12.0625 -11.9375 12.0625 -15 14 C-15.99 13.67 -16.98 13.34 -18 13 C-17.36191406 12.51789062 -16.72382812 12.03578125 -16.06640625 11.5390625 C-15.24011719 10.90742187 -14.41382813 10.27578125 -13.5625 9.625 C-12.73878906 8.99851562 -11.91507813 8.37203125 -11.06640625 7.7265625 C-8.91471908 6.16246096 -8.91471908 6.16246096 -8 4 C-7.401875 3.855625 -6.80375 3.71125 -6.1875 3.5625 C-3.58775458 2.89399403 -2.05662055 1.68936688 0 0 Z " fill="#764323" transform="translate(578,787)"/>
<path d="M0 0 C2.475 0.99 2.475 0.99 5 2 C5.33 1.34 5.66 0.68 6 0 C6.66 0.33 7.32 0.66 8 1 C8 1.66 8 2.32 8 3 C8.66 3 9.32 3 10 3 C10.66 4.65 11.32 6.3 12 8 C8.05879291 7.43697042 5.2491277 6.3208055 2 4 C2 3.34 2 2.68 2 2 C1.34 2 0.68 2 0 2 C0 1.34 0 0.68 0 0 Z " fill="#814823" transform="translate(431,659)"/>
<path d="M0 0 C0.66 0.33 1.32 0.66 2 1 C0.33333333 2.66666667 -1.33333333 4.33333333 -3 6 C-3.45375 6.556875 -3.9075 7.11375 -4.375 7.6875 C-6.93139356 9.75227941 -9.85484729 10.22854745 -13 11 C-9.0299782 6.78185183 -4.69159716 3.38772897 0 0 Z " fill="#F8EDE6" transform="translate(597,775)"/>
<path d="M0 0 C0.66 0.33 1.32 0.66 2 1 C-1.27913978 5.47155424 -3.99859457 7.55033203 -9 10 C-9.99 10.66 -10.98 11.32 -12 12 C-12 11.01 -12 10.02 -12 9 C-10.03123367 7.30369687 -8.11326838 5.80463882 -6 4.3125 C-5.42765625 3.89677734 -4.8553125 3.48105469 -4.265625 3.05273438 C-2.85003468 2.02643139 -1.42580369 1.01206601 0 0 Z " fill="#F3E6DC" transform="translate(616,761)"/>
<path d="M0 0 C0.99 0 1.98 0 3 0 C3.45375 0.474375 3.9075 0.94875 4.375 1.4375 C6.46366683 3.44583349 8.1783448 3.61869524 11 4 C11 5.32 11 6.64 11 8 C12.32 8.33 13.64 8.66 15 9 C14.67 9.99 14.34 10.98 14 12 C11.66083869 10.38287572 9.32878299 8.75694638 7 7.125 C6.33226562 6.66480469 5.66453125 6.20460938 4.9765625 5.73046875 C3.28140649 4.53694054 1.6362422 3.27309661 0 2 C0 1.34 0 0.68 0 0 Z " fill="#7F4726" transform="translate(292,677)"/>
<path d="M0 0 C4.65285685 0.50067847 7.69503896 2.59707123 11.3125 5.375 C12.13717773 5.97441406 12.13717773 5.97441406 12.97851562 6.5859375 C14.55078125 7.7734375 14.55078125 7.7734375 17 10 C17 10.99 17 11.98 17 13 C15.02 12.01 13.04 11.02 11 10 C11 9.34 11 8.68 11 8 C9.36816893 6.94410931 7.69207001 5.9563874 6 5 C3.97681922 3.70211044 1.97133986 2.37535339 0 1 C0 0.67 0 0.34 0 0 Z " fill="#774223" transform="translate(492,766)"/>
<path d="M0 0 C0.66 0.33 1.32 0.66 2 1 C2.99 1 3.98 1 5 1 C5.66 1.33 6.32 1.66 7 2 C2.25 6 2.25 6 0 6 C0 6.66 0 7.32 0 8 C-0.99 8.66 -1.98 9.32 -3 10 C-3.99 9.67 -4.98 9.34 -6 9 C-5.01 8.38125 -5.01 8.38125 -4 7.75 C-3.34 7.1725 -2.68 6.595 -2 6 C-2 4.68 -2 3.36 -2 2 C-1.34 2 -0.68 2 0 2 C0 1.34 0 0.68 0 0 Z " fill="#7C431F" transform="translate(746,660)"/>
<path d="M0 0 C0.66 0 1.32 0 2 0 C0.47282845 4.58151466 -1.59214011 7.79607006 -6 10 C-7.13350534 12.01669827 -7.13350534 12.01669827 -8 14 C-8.33 14 -8.66 14 -9 14 C-9.3125 11.8125 -9.3125 11.8125 -9 9 C-6.34999338 5.83471431 -3.83776322 3.56353316 0 2 C0 1.34 0 0.68 0 0 Z " fill="#F9F1E8" transform="translate(746,666)"/>
<path d="M0 0 C0.66 0.33 1.32 0.66 2 1 C-0.43404713 2.8173021 -2.87196449 4.6289489 -5.3125 6.4375 C-6.34793945 7.2119043 -6.34793945 7.2119043 -7.40429688 8.00195312 C-8.07138672 8.49501953 -8.73847656 8.98808594 -9.42578125 9.49609375 C-10.03848877 9.95169678 -10.65119629 10.4072998 -11.2824707 10.87670898 C-13 12 -13 12 -16 13 C-15.375 11.125 -15.375 11.125 -14 9 C-10.875 7.75 -10.875 7.75 -8 7 C-8 6.34 -8 5.68 -8 5 C-6.3203125 3.67578125 -6.3203125 3.67578125 -4.125 2.3125 C-3.40570312 1.85488281 -2.68640625 1.39726563 -1.9453125 0.92578125 C-0.98238281 0.46751953 -0.98238281 0.46751953 0 0 Z " fill="#754624" transform="translate(596,656)"/>
<path d="M0 0 C5.21592698 2.13637096 9.76405345 4.17398376 14 8 C13.67 8.66 13.34 9.32 13 10 C9.93124691 8.5360077 7.09565257 6.85990364 4.25 5 C3.45078125 4.484375 2.6515625 3.96875 1.828125 3.4375 C0.92320312 2.7259375 0.92320312 2.7259375 0 2 C0 1.34 0 0.68 0 0 Z " fill="#F7EADF" transform="translate(287,614)"/>
<path d="M0 0 C0.33 0.66 0.66 1.32 1 2 C0.34 2 -0.32 2 -1 2 C-1.2475 2.598125 -1.495 3.19625 -1.75 3.8125 C-3.23091327 6.40409822 -4.42300536 7.49675313 -7 9 C-10.25 9.6875 -10.25 9.6875 -13 10 C-9.28249221 5.79759989 -4.68339021 3.00217321 0 0 Z " fill="#F4E7D9" transform="translate(650,737)"/>
<path d="M0 0 C0.99 0 1.98 0 3 0 C3 0.66 3 1.32 3 2 C3.72574219 2.25523437 4.45148438 2.51046875 5.19921875 2.7734375 C8.1552984 4.06801074 10.30564666 5.60455104 12.8125 7.625 C13.60269531 8.25664063 14.39289063 8.88828125 15.20703125 9.5390625 C16.09455078 10.26222656 16.09455078 10.26222656 17 11 C16.67 11.66 16.34 12.32 16 13 C4.29384966 4.738041 4.29384966 4.738041 0 0 Z " fill="#734122" transform="translate(419,712)"/>
<path d="M0 0 C4.31288807 1.47230316 7.71781434 3.76576765 11.3125 6.5 C11.86228516 6.90347656 12.41207031 7.30695312 12.97851562 7.72265625 C14.36007451 8.76268691 15.68556298 9.87633454 17 11 C17 11.66 17 12.32 17 13 C12.96750591 11.6558353 10.93327694 10.01708485 8 7 C5.89686956 5.38314249 3.76134012 3.820674 1.609375 2.26953125 C1.07828125 1.85058594 0.5471875 1.43164062 0 1 C0 0.67 0 0.34 0 0 Z " fill="#724123" transform="translate(375,680)"/>
<path d="M0 0 C0.66 0.33 1.32 0.66 2 1 C0.71937515 2.7074998 -0.61767557 4.37373596 -2 6 C-2.66 6 -3.32 6 -4 6 C-4.66 7.65 -5.32 9.3 -6 11 C-6.33 10.34 -6.66 9.68 -7 9 C-7.99 8.67 -8.98 8.34 -10 8 C-6.7 5.36 -3.4 2.72 0 0 Z " fill="#F6E9DE" transform="translate(536,819)"/>
<path d="M0 0 C0 3 0 3 -1.375 4.6875 C-3 6 -3 6 -5 6 C-4.67 7.32 -4.34 8.64 -4 10 C-5.98 9.34 -7.96 8.68 -10 8 C-8.625 6.5 -8.625 6.5 -7 5 C-6.34 5 -5.68 5 -5 5 C-5 4.34 -5 3.68 -5 3 C-2.5 1.375 -2.5 1.375 0 0 Z " fill="#F5EBE3" transform="translate(637,630)"/>
<path d="M0 0 C2 1 2 1 3 3 C1.88625 3.433125 0.7725 3.86625 -0.375 4.3125 C-4.17512334 5.69911119 -4.17512334 5.69911119 -6 9 C-8.625 9.1875 -8.625 9.1875 -11 9 C-7.67149253 5.40521193 -4.01028669 2.77635232 0 0 Z " fill="#F1E3D6" transform="translate(604,652)"/>
<path d="M0 0 C0.66 0.33 1.32 0.66 2 1 C-0.35380297 4.92300495 -2.64464931 5.83857315 -7 7 C-7 7.66 -7 8.32 -7 9 C-8.32 9.33 -9.64 9.66 -11 10 C-11 9.34 -11 8.68 -11 8 C-10.34 8 -9.68 8 -9 8 C-9 7.34 -9 6.68 -9 6 C-7.03125 4.4921875 -7.03125 4.4921875 -4.5 2.875 C-3.6646875 2.33617187 -2.829375 1.79734375 -1.96875 1.2421875 C-0.99421875 0.62730469 -0.99421875 0.62730469 0 0 Z " fill="#7C4A2B" transform="translate(689,649)"/>
<path d="M0 0 C1.65 0 3.3 0 5 0 C5 0.66 5 1.32 5 2 C6.2065625 2.433125 6.2065625 2.433125 7.4375 2.875 C10 4 10 4 11 6 C10.01 6.33 9.02 6.66 8 7 C5.5625 5.6875 5.5625 5.6875 3 4 C1.67391178 3.31903578 0.34313399 2.64669414 -1 2 C-0.67 1.34 -0.34 0.68 0 0 Z " fill="#F5ECE2" transform="translate(457,800)"/>
<path d="M0 0 C2.64 0.33 5.28 0.66 8 1 C8.33 2.32 8.66 3.64 9 5 C8.01 5 7.02 5 6 5 C6.33 5.66 6.66 6.32 7 7 C2.25 5.125 2.25 5.125 0 4 C0 2.68 0 1.36 0 0 Z " fill="#83441B" transform="translate(405,639)"/>
<path d="M0 0 C3.75563429 2.20919664 7.38776679 4.56384272 11 7 C10.67 7.66 10.34 8.32 10 9 C6.41213553 7.34406255 3.16216412 5.37162309 0 3 C0 2.01 0 1.02 0 0 Z " fill="#F6EAE0" transform="translate(403,759)"/>
<path d="M0 0 C0 0.66 0 1.32 0 2 C-1.94982535 3.40568804 -3.95950578 4.7295036 -6 6 C-6.9075 6.598125 -7.815 7.19625 -8.75 7.8125 C-9.4925 8.204375 -10.235 8.59625 -11 9 C-11.66 8.67 -12.32 8.34 -13 8 C-11.40320196 6.6578508 -9.79729803 5.32652885 -8.1875 4 C-6.84751953 2.88625 -6.84751953 2.88625 -5.48046875 1.75 C-3 0 -3 0 0 0 Z " fill="#7D4729" transform="translate(550,752)"/>
<path d="M0 0 C0.33 0.66 0.66 1.32 1 2 C-2.08993314 5.35478456 -4.53194683 7.79241806 -9 9 C-9.66 8.67 -10.32 8.34 -11 8 C-7.37 5.36 -3.74 2.72 0 0 Z " fill="#F5E9D9" transform="translate(669,723)"/>
<path d="M0 0 C0.66 0.33 1.32 0.66 2 1 C1.25 2.9375 1.25 2.9375 0 5 C-1.875 5.5625 -1.875 5.5625 -4 6 C-6.2072358 7.48800372 -6.2072358 7.48800372 -8 9 C-8.66 8.67 -9.32 8.34 -10 8 C-9.34 6.35 -8.68 4.7 -8 3 C-7.01 3.33 -6.02 3.66 -5 4 C-2.30566683 2.12802546 -2.30566683 2.12802546 0 0 Z " fill="#95532A" transform="translate(666,721)"/>
<path d="M0 0 C-4.75 4.875 -4.75 4.875 -7 6 C-7.66 5.67 -8.32 5.34 -9 5 C-8.00233891 2.50584728 -7.31383315 1.21259665 -5.0625 -0.3125 C-3 -1 -3 -1 0 0 Z " fill="#864F2D" transform="translate(700,700)"/>
<path d="M0 0 C4.28477792 2.30718811 7.72291137 4.32966073 11 8 C10.01 8.33 9.02 8.66 8 9 C7.67 8.01 7.34 7.02 7 6 C4.98491642 5.26676204 4.98491642 5.26676204 3 5 C3 4.34 3 3.68 3 3 C1.68 2.34 0.36 1.68 -1 1 C-0.67 0.67 -0.34 0.34 0 0 Z " fill="#F7EAE0" transform="translate(291,678)"/>
<path d="M0 0 C2.64 0 5.28 0 8 0 C8 0.66 8 1.32 8 2 C5.69 3.32 3.38 4.64 1 6 C0.67 4.02 0.34 2.04 0 0 Z " fill="#854B26" transform="translate(760,650)"/>
<path d="M0 0 C0.66 0.33 1.32 0.66 2 1 C0.625 2.5 0.625 2.5 -1 4 C-1.66 4 -2.32 4 -3 4 C-3.33 5.65 -3.66 7.3 -4 9 C-4.33 8.34 -4.66 7.68 -5 7 C-5.99 6.67 -6.98 6.34 -8 6 C-5.36 4.02 -2.72 2.04 0 0 Z " fill="#7C4320" transform="translate(523,770)"/>
<path d="M0 0 C6.36794117 1.06132353 9.13204555 2.75063325 13 8 C9.52709591 7.36276989 7.15645247 5.97562783 4.25 4 C3.45078125 3.46375 2.6515625 2.9275 1.828125 2.375 C1.22484375 1.92125 0.6215625 1.4675 0 1 C0 0.67 0 0.34 0 0 Z " fill="#7A4427" transform="translate(266,659)"/>
<path d="M0 0 C-1.1446875 0.8971875 -1.1446875 0.8971875 -2.3125 1.8125 C-4.3483575 3.46959332 -6.1978279 5.10297674 -8 7 C-8.66 6.67 -9.32 6.34 -10 6 C-7.09167817 0.84433858 -5.91982852 -0.15578496 0 0 Z " fill="#F1E2D6" transform="translate(680,656)"/>
<path d="M0 0 C2.1519437 3.22791555 2.20086443 4.28400809 2 8 C-1 8 -1 8 -2.6875 6.5 C-3.120625 6.005 -3.55375 5.51 -4 5 C-3.34 4.67 -2.68 4.34 -2 4 C-2 3.01 -2 2.02 -2 1 C-1.34 0.67 -0.68 0.34 0 0 Z " fill="#93542B" transform="translate(582,727)"/>
<path d="M0 0 C5.08938811 1.59043379 8.87456643 4.7446951 13 8 C12.01 8.495 12.01 8.495 11 9 C8.90625 8.14453125 8.90625 8.14453125 6.5 6.8125 C5.7059375 6.38582031 4.911875 5.95914063 4.09375 5.51953125 C1.81116449 3.86295333 1.02179405 2.59335773 0 0 Z " fill="#794627" transform="translate(309,632)"/>
<path d="M0 0 C2.64 0.33 5.28 0.66 8 1 C8.33 2.98 8.66 4.96 9 7 C8.67 6.34 8.34 5.68 8 5 C5.47266765 4.34444881 5.47266765 4.34444881 3 4 C3 3.34 3 2.68 3 2 C2.01 1.67 1.02 1.34 0 1 C0 0.67 0 0.34 0 0 Z " fill="#7F4523" transform="translate(391,632)"/>
<path d="M0 0 C0.99 0.33 1.98 0.66 3 1 C2.01 2.485 2.01 2.485 1 4 C0.34 4 -0.32 4 -1 4 C-1 4.66 -1 5.32 -1 6 C-2.65 6 -4.3 6 -6 6 C-5.67 5.34 -5.34 4.68 -5 4 C-4.34 4 -3.68 4 -3 4 C-3 3.34 -3 2.68 -3 2 C-2.01 1.34 -1.02 0.68 0 0 Z " fill="#F7EAE0" transform="translate(627,753)"/>
<path d="M0 0 C5.08938811 1.59043379 8.87456643 4.7446951 13 8 C12.01 8.495 12.01 8.495 11 9 C9.16384919 7.69144447 7.33114211 6.37805538 5.5 5.0625 C4.4790625 4.33160156 3.458125 3.60070312 2.40625 2.84765625 C1.6121875 2.23792969 0.818125 1.62820313 0 1 C0 0.67 0 0.34 0 0 Z " fill="#733E21" transform="translate(472,751)"/>
<path d="M0 0 C0.99 0.33 1.98 0.66 3 1 C3 1.66 3 2.32 3 3 C4.2065625 3.433125 4.2065625 3.433125 5.4375 3.875 C8 5 8 5 9 7 C2.25 6.25 2.25 6.25 0 4 C0.66 4 1.32 4 2 4 C2 3.34 2 2.68 2 2 C1.34 2 0.68 2 0 2 C0 1.34 0 0.68 0 0 Z " fill="#F2E6D9" transform="translate(495,825)"/>
<path d="M0 0 C2.125 0.375 2.125 0.375 4 1 C3.67 1.99 3.34 2.98 3 4 C3.66 4.33 4.32 4.66 5 5 C3.68 5.33 2.36 5.66 1 6 C0.67 5.01 0.34 4.02 0 3 C-0.66 2.67 -1.32 2.34 -2 2 C-1.34 1.34 -0.68 0.68 0 0 Z " fill="#87491E" transform="translate(513,777)"/>
<path d="M0 0 C1.16945792 0.80847729 2.33550461 1.62189112 3.5 2.4375 C4.47453125 3.11619141 4.47453125 3.11619141 5.46875 3.80859375 C6.22671875 4.39833984 6.22671875 4.39833984 7 5 C7 5.33 7 5.66 7 6 C4.75 6.25 4.75 6.25 2 6 C-0.3125 4 -0.3125 4 -2 2 C-1.34 2 -0.68 2 0 2 C0 1.34 0 0.68 0 0 Z " fill="#F5EAE0" transform="translate(394,752)"/>
<path d="M0 0 C3.65316671 1.24976756 4.78065836 1.67098753 7 5 C6.34 5.66 5.68 6.32 5 7 C3.02 5.68 1.04 4.36 -1 3 C-0.67 2.01 -0.34 1.02 0 0 Z " fill="#F0E2D9" transform="translate(457,736)"/>
<path d="M0 0 C3.68598133 0.99621117 4.78257889 1.6272781 6.75 5 C7.1625 5.99 7.575 6.98 8 8 C8.33 8.66 8.66 9.32 9 10 C5.13322435 8.533292 3.99014441 6.52798328 2 3 C1.34 2.67 0.68 2.34 0 2 C0 1.34 0 0.68 0 0 Z " fill="#7F431C" transform="translate(437,725)"/>
<path d="M0 0 C0.66 0.33 1.32 0.66 2 1 C-0.31 3.64 -2.62 6.28 -5 9 C-7 8 -7 8 -8 6 C-5.36 4.02 -2.72 2.04 0 0 Z " fill="#EFDFD4" transform="translate(708,694)"/>
<path d="M0 0 C0.99 0.33 1.98 0.66 3 1 C2.01 1.495 2.01 1.495 1 2 C1 2.66 1 3.32 1 4 C0.01 4 -0.98 4 -2 4 C-2 4.66 -2 5.32 -2 6 C-3.32 5.34 -4.64 4.68 -6 4 C-3.1875 1.9375 -3.1875 1.9375 0 0 Z " fill="#F4E7D9" transform="translate(621,641)"/>
<path d="M0 0 C0.66 0.33 1.32 0.66 2 1 C-0.02882906 3.94180214 -2.05819786 5.97117094 -5 8 C-5.99 7.34 -6.98 6.68 -8 6 C-5.36 4.02 -2.72 2.04 0 0 Z " fill="#F5E7DD" transform="translate(564,799)"/>
<path d="M0 0 C0.66 0.33 1.32 0.66 2 1 C0.90716423 2.03295436 -0.19970579 3.05107835 -1.3125 4.0625 C-1.92738281 4.63097656 -2.54226563 5.19945312 -3.17578125 5.78515625 C-3.77777344 6.18605469 -4.37976563 6.58695313 -5 7 C-5.99 6.67 -6.98 6.34 -8 6 C-7.34 4.68 -6.68 3.36 -6 2 C-5.01 2 -4.02 2 -3 2 C-2.01 1.34 -1.02 0.68 0 0 Z " fill="#794425" transform="translate(604,768)"/>
<path d="M0 0 C1.48521677 0.75911079 2.96303425 1.53271234 4.4375 2.3125 C5.67306641 2.95638672 5.67306641 2.95638672 6.93359375 3.61328125 C9 5 9 5 10 8 C6.01328937 6.63312778 3.11505367 4.84804907 0 2 C0 1.34 0 0.68 0 0 Z " fill="#76431F" transform="translate(396,752)"/>
<path d="M0 0 C3.53372712 1.96318174 6.24479785 4.04070881 9 7 C4.25 6.125 4.25 6.125 2 5 C2 4.34 2 3.68 2 3 C1.34 3 0.68 3 0 3 C0 2.01 0 1.02 0 0 Z " fill="#F7EBDD" transform="translate(363,730)"/>
<path d="M0 0 C3.65316671 1.24976756 4.78065836 1.67098753 7 5 C5.02 5 3.04 5 1 5 C0.67 3.35 0.34 1.7 0 0 Z " fill="#F8ECE9" transform="translate(347,719)"/>
<path d="M0 0 C1.65 0 3.3 0 5 0 C5.33 1.32 5.66 2.64 6 4 C6.66 4 7.32 4 8 4 C8 4.66 8 5.32 8 6 C5.0280615 4.87548273 2.66559313 3.77706209 0 2 C0 1.34 0 0.68 0 0 Z " fill="#F6ECDE" transform="translate(360,667)"/>
<path d="M0 0 C1.2065625 0.0309375 1.2065625 0.0309375 2.4375 0.0625 C2.1075 1.0525 1.7775 2.0425 1.4375 3.0625 C-1.89583333 3.72916667 -5.22916667 4.39583333 -8.5625 5.0625 C-7.758125 4.423125 -6.95375 3.78375 -6.125 3.125 C-2.3125 0.05640244 -2.3125 0.05640244 0 0 Z " fill="#8A502F" transform="translate(538.5625,759.9375)"/>
<path d="M0 0 C2.875 0.3125 2.875 0.3125 6 1 C6.66 1.99 7.32 2.98 8 4 C7.34 4.66 6.68 5.32 6 6 C3.97945196 4.35830472 1.97956942 2.69088222 0 1 C0 0.67 0 0.34 0 0 Z " fill="#F8EAE0" transform="translate(445,729)"/>
<path d="M0 0 C0.99 0.33 1.98 0.66 3 1 C2.01 1.495 2.01 1.495 1 2 C1.33 2.66 1.66 3.32 2 4 C-0.64 4.66 -3.28 5.32 -6 6 C-6 5.34 -6 4.68 -6 4 C-3.1875 1.8125 -3.1875 1.8125 0 0 Z " fill="#7A421E" transform="translate(600,714)"/>
<path d="M0 0 C0.99 0.33 1.98 0.66 3 1 C1.8125 3 1.8125 3 0 5 C-2.6875 5.25 -2.6875 5.25 -5 5 C-3.35 3.35 -1.7 1.7 0 0 Z " fill="#F2E5D9" transform="translate(715,689)"/>
<path d="M0 0 C5.03985731 0.44469329 7.37634988 2.71343362 11 6 C10.01 6.495 10.01 6.495 9 7 C7.88625 6.071875 7.88625 6.071875 6.75 5.125 C4.51198812 3.39562719 2.56260013 2.13893339 0 1 C0 0.67 0 0.34 0 0 Z " fill="#794421" transform="translate(364,673)"/>
<path d="M0 0 C2.88437779 1.29299694 4.87219421 2.65941363 7 5 C6.01 5.33 5.02 5.66 4 6 C1.3125 4.5625 1.3125 4.5625 -1 3 C-0.67 2.01 -0.34 1.02 0 0 Z " fill="#F8EEE4" transform="translate(284,673)"/>
<path d="M0 0 C0.66 0.33 1.32 0.66 2 1 C2 1.66 2 2.32 2 3 C-0.25 4.6875 -0.25 4.6875 -3 6 C-4.32 5.67 -5.64 5.34 -7 5 C-4.69 3.35 -2.38 1.7 0 0 Z " fill="#EFDED2" transform="translate(755,660)"/>
<path d="M0 0 C0.33 0.66 0.66 1.32 1 2 C0.01 2.33 -0.98 2.66 -2 3 C-2 2.34 -2 1.68 -2 1 C-1.34 0.67 -0.68 0.34 0 0 Z M-4.375 2.875 C-3.59125 2.91625 -2.8075 2.9575 -2 3 C-2.33 3.66 -2.66 4.32 -3 5 C-3.66 5 -4.32 5 -5 5 C-5 5.66 -5 6.32 -5 7 C-6.32 7.33 -7.64 7.66 -9 8 C-9 4.09754579 -8.33283286 3.06346823 -4.375 2.875 Z " fill="#92552F" transform="translate(684,655)"/>
<path d="M0 0 C2.9719385 1.12451727 5.33440687 2.22293791 8 4 C8 4.66 8 5.32 8 6 C8.66 6 9.32 6 10 6 C9.67 6.66 9.34 7.32 9 8 C7.49460339 7.05016642 5.99579653 6.08988109 4.5 5.125 C3.6646875 4.59132813 2.829375 4.05765625 1.96875 3.5078125 C1.3190625 3.01023437 0.669375 2.51265625 0 2 C0 1.34 0 0.68 0 0 Z " fill="#754425" transform="translate(418,650)"/>
<path d="M0 0 C0 0.66 0 1.32 0 2 C-0.66 2 -1.32 2 -2 2 C-2.33 2.99 -2.66 3.98 -3 5 C-4.98 5.33 -6.96 5.66 -9 6 C-8.34 5.67 -7.68 5.34 -7 5 C-7 4.34 -7 3.68 -7 3 C-2.61538462 0 -2.61538462 0 0 0 Z " fill="#F1E0D2" transform="translate(615,646)"/>
<path d="M0 0 C3.99500618 1.3697164 6.80009492 3.25722422 10 6 C9.67 6.66 9.34 7.32 9 8 C7.68388323 7.04663979 6.37221039 6.08714226 5.0625 5.125 C4.33160156 4.59132813 3.60070312 4.05765625 2.84765625 3.5078125 C1 2 1 2 0 0 Z " fill="#733C1F" transform="translate(295,622)"/>
<path d="M0 0 C1.33597652 0.80814651 2.668725 1.62163181 4 2.4375 C5.11375 3.11619141 5.11375 3.11619141 6.25 3.80859375 C6.8275 4.20175781 7.405 4.59492187 8 5 C8 5.33 8 5.66 8 6 C6.02 6 4.04 6 2 6 C0 2.25 0 2.25 0 0 Z " fill="#F3E8DD" transform="translate(416,768)"/>
<path d="M0 0 C0 0.66 0 1.32 0 2 C0.66 2 1.32 2 2 2 C2 2.66 2 3.32 2 4 C0.68 4 -0.64 4 -2 4 C-2.33 4.66 -2.66 5.32 -3 6 C-3.66 4.35 -4.32 2.7 -5 1 C-2 0 -2 0 0 0 Z " fill="#96552B" transform="translate(372,729)"/>
<path d="M0 0 C0 3 0 3 -1.4375 4.5625 C-1.953125 5.036875 -2.46875 5.51125 -3 6 C-3.33 6.66 -3.66 7.32 -4 8 C-5.32 7.34 -6.64 6.68 -8 6 C-5.36 4.02 -2.72 2.04 0 0 Z " fill="#F7EADD" transform="translate(699,701)"/>
<path d="M0 0 C3.37503669 1.1858237 5.64722731 2.27573689 8 5 C4 5 4 5 1.75 3.0625 C0 1 0 1 0 0 Z " fill="#F8EFE5" transform="translate(433,663)"/>
<path d="M0 0 C1.32 0.66 2.64 1.32 4 2 C2.02 3.32 0.04 4.64 -2 6 C-2.33 5.01 -2.66 4.02 -3 3 C-2.01 2.01 -1.02 1.02 0 0 Z " fill="#F9EFE4" transform="translate(683,649)"/>
<path d="M0 0 C2.31 0.33 4.62 0.66 7 1 C7 1.99 7 2.98 7 4 C6.01 4.66 5.02 5.32 4 6 C3.34 5.34 2.68 4.68 2 4 C2.33 3.67 2.66 3.34 3 3 C2.01 2.01 1.02 1.02 0 0 Z " fill="#91532D" transform="translate(408,642)"/>
<path d="M0 0 C1.32 0.66 2.64 1.32 4 2 C2.02 3.32 0.04 4.64 -2 6 C-2.99 5.34 -3.98 4.68 -5 4 C-4.360625 3.71125 -3.72125 3.4225 -3.0625 3.125 C-0.84793921 2.17176549 -0.84793921 2.17176549 0 0 Z " fill="#F9F2ED" transform="translate(694,641)"/>
<path d="M0 0 C3.465 1.98 3.465 1.98 7 4 C6.34 4.66 5.68 5.32 5 6 C2.69 5.01 0.38 4.02 -2 3 C-1.34 2.67 -0.68 2.34 0 2 C0 1.34 0 0.68 0 0 Z " fill="#F3E6E0" transform="translate(431,779)"/>
<path d="M0 0 C4.43458973 1.3937282 6.87378374 3.60582235 10 7 C6.4124787 5.66749209 3.1635377 4.169283 0 2 C0 1.34 0 0.68 0 0 Z " fill="#713A1F" transform="translate(433,779)"/>
<path d="M0 0 C5.75 0.75 5.75 0.75 8 3 C7.67 3.99 7.34 4.98 7 6 C5.83054208 5.19152271 4.66449539 4.37810888 3.5 3.5625 C2.8503125 3.11003906 2.200625 2.65757812 1.53125 2.19140625 C1.0259375 1.79824219 0.520625 1.40507813 0 1 C0 0.67 0 0.34 0 0 Z " fill="#F9EDE2" transform="translate(465,744)"/>
<path d="M0 0 C0.66 0 1.32 0 2 0 C2 0.66 2 1.32 2 2 C2.99 2.33 3.98 2.66 5 3 C4.67 3.99 4.34 4.98 4 6 C2.02 4.68 0.04 3.36 -2 2 C-1.34 1.34 -0.68 0.68 0 0 Z " fill="#F4EBE1" transform="translate(371,673)"/>
<path d="M0 0 C0.99 0.66 1.98 1.32 3 2 C0.69 3.32 -1.62 4.64 -4 6 C-3.6875 4.125 -3.6875 4.125 -3 2 C-2.01 1.34 -1.02 0.68 0 0 Z " fill="#F7EEE7" transform="translate(704,635)"/>
<path d="M0 0 C0.66 0.66 1.32 1.32 2 2 C-0.31 3.65 -2.62 5.3 -5 7 C-5.66 6.01 -6.32 5.02 -7 4 C-4.69 3.34 -2.38 2.68 0 2 C0 1.34 0 0.68 0 0 Z " fill="#F4E4D7" transform="translate(731,616)"/>
<path d="M0 0 C0.66 0.33 1.32 0.66 2 1 C1.34 2.32 0.68 3.64 0 5 C-1.32 5 -2.64 5 -4 5 C-4.33 5.66 -4.66 6.32 -5 7 C-5 6.01 -5 5.02 -5 4 C-2.5 1.8125 -2.5 1.8125 0 0 Z " fill="#F3E2D4" transform="translate(572,793)"/>
<path d="M0 0 C-4.75 4 -4.75 4 -7 4 C-7.33 3.01 -7.66 2.02 -8 1 C-3.375 -1.125 -3.375 -1.125 0 0 Z " fill="#F3E5D7" transform="translate(593,720)"/>
<path d="M0 0 C-2.3125 2.0625 -2.3125 2.0625 -5 4 C-5.99 3.67 -6.98 3.34 -8 3 C-8 2.34 -8 1.68 -8 1 C-4.93251126 -0.86240388 -3.40254489 -1.2151946 0 0 Z " fill="#F5EBE1" transform="translate(604,712)"/>
<path d="M0 0 C2.0625 0.4375 2.0625 0.4375 4 1 C2.71034824 2.37562854 1.37310707 3.70766393 0 5 C-0.66 5 -1.32 5 -2 5 C-1.125 1.125 -1.125 1.125 0 0 Z " fill="#F3E8E0" transform="translate(618,697)"/>
<path d="M0 0 C0.99 0.33 1.98 0.66 3 1 C1.37660195 2.70884005 -0.29319053 4.37446717 -2 6 C-2.66 6 -3.32 6 -4 6 C-2.84826645 3.53199953 -1.95216435 1.95216435 0 0 Z " fill="#F7EAE1" transform="translate(642,680)"/>
<path d="M0 0 C0.66 1.65 1.32 3.3 2 5 C1.01 5.495 1.01 5.495 0 6 C0 5.34 0 4.68 0 4 C-2.475 3.01 -2.475 3.01 -5 2 C-2 0 -2 0 0 0 Z " fill="#F7E8DC" transform="translate(357,661)"/>
<path d="M0 0 C3.48330216 0.64505596 6.09432866 1.98217268 9 4 C9 4.66 9 5.32 9 6 C7.68 5.67 6.36 5.34 5 5 C5 4.34 5 3.68 5 3 C2.525 2.01 2.525 2.01 0 1 C0 0.67 0 0.34 0 0 Z " fill="#733F20" transform="translate(447,733)"/>
<path d="M0 0 C0.66 0.33 1.32 0.66 2 1 C0.35 2.98 -1.3 4.96 -3 7 C-3.99 6.34 -4.98 5.68 -6 5 C-4.02 3.35 -2.04 1.7 0 0 Z " fill="#F3E6DD" transform="translate(682,713)"/>
<path d="M0 0 C0.66 0.33 1.32 0.66 2 1 C2.99 1 3.98 1 5 1 C5 1.66 5 2.32 5 3 C3.02 3.66 1.04 4.32 -1 5 C-1.33 4.34 -1.66 3.68 -2 3 C-1.34 2.01 -0.68 1.02 0 0 Z " fill="#84441F" transform="translate(664,667)"/>
<path d="M0 0 C-0.33 1.32 -0.66 2.64 -1 4 C-4.75 5.125 -4.75 5.125 -7 4 C-2.25 0 -2.25 0 0 0 Z " fill="#F9EDE5" transform="translate(764,655)"/>
</svg>
